<svg xmlns="http://www.w3.org/2000/svg" viewBox="0 0 200 200" width="200" height="200" role="img" aria-labelledby="polychat-logo-title"><title id="polychat-logo-title">Polychat</title><g transform="translate(2 6) scale(0.97)"><g transform="translate(0.00 0.00) rotate(0.000 100 172) translate(100 172) scale(1.000 1.000) translate(-100 -172)"><g transform="rotate(0.000 78 112)"><path d="M80 114 20 148 84 134Z" fill="#7B1FA2" stroke="#2b1b47" stroke-width="2.6" stroke-linejoin="miter"/></g><path d="M92 138 88 166 98 166Z" fill="#512DA8" stroke="#2b1b47" stroke-width="2" stroke-linejoin="miter"/><path d="M110 138 106 166 116 166Z" fill="#512DA8" stroke="#2b1b47" stroke-width="2" stroke-linejoin="miter"/><path d="M80 166 102 166 96 177 84 177Z" fill="#4527A0" stroke="#2b1b47" stroke-width="2" stroke-linejoin="miter"/><path d="M102 166 124 166 120 177 106 177Z" fill="#4527A0" stroke="#2b1b47" stroke-width="2" stroke-linejoin="miter"/><path d="M40 108 62 58 108 46 146 70 156 108 124 142 76 142Z" fill="#673AB7" stroke="#2b1b47" stroke-width="2.6" stroke-linejoin="miter"/><path d="M84 108 100 142 118 106Z" fill="#CE93D8" stroke="#2b1b47" stroke-width="1.8" stroke-linejoin="miter"/><path d="M86 92 102 108 118 90Z" fill="#E1BEE7" stroke="#2b1b47" stroke-width="1.4" stroke-linejoin="miter"/><path d="M122 108 134 120M122 120 134 108" fill="none" stroke="#2b1b47" stroke-width="2" stroke-linecap="round"/><g transform="rotate(0.000 100 52)"><path d="M80 54 100 12 120 54Z" fill="#9C27B0" stroke="#2b1b47" stroke-width="2.6" stroke-linejoin="miter"/></g><g transform="rotate(0.000 144 86)"><path d="M133 86 165 90 158 103 139 98Z" fill="#E07C00" stroke="#2b1b47" stroke-width="2.6" stroke-linejoin="miter"/></g><path d="M129 64 168 68 179 84 168 105 155 96 145 78Z" fill="#FF9800" stroke="#2b1b47" stroke-width="2.6" stroke-linejoin="miter"/><circle cx="152" cy="72" r="3.2" fill="#2b1b47" opacity="0.55"/><g transform="translate(106 80) scale(1 1.000) translate(-106 -80)">
          <circle cx="106" cy="80" r="9" fill="#FFFFFF" stroke="#2b1b47" stroke-width="2.2"/>
          <circle cx="106.0" cy="80.0" r="4.5" fill="#2b1b47"/>
          
        </g><g transform="rotate(0.000 86 100)"><path d="M84 96 50 118 62 134 96 118Z" fill="#4A148C" stroke="#2b1b47" stroke-width="2.6" stroke-linejoin="miter"/></g></g></g></svg>
