<svg xmlns="http://www.w3.org/2000/svg" viewBox="0 0 200 200" aria-labelledby="title" role="img"><title id="title" class="sr-only">Polychat Logo</title><path fill="#1E88E5" stroke="#333" stroke-width="2" d="M50 100 70 60 110 50 140 70 150 100 120 130H80z"></path><path fill="#FFC107" stroke="#333" stroke-width="2" d="M140 70 170 60 160 90 150 100z"></path><path fill="#E53935" stroke="#333" stroke-width="2" d="M80 45 90 25 100 45z"></path><path fill="#F44336" stroke="#333" stroke-width="2" d="M100 45 110 30 120 50z"></path><path fill="#0D47A1" stroke="#333" stroke-width="2" d="M80 90 60 110 70 120 90 110z"></path><path fill="#4CAF50" stroke="#333" stroke-width="2" d="M50 100 30 90 25 110 40 115z"></path><path fill="#8BC34A" stroke="#333" stroke-width="2" d="M50 100 35 120 45 130 60 120z"></path><circle cx="100" cy="70" r="4" fill="#333"></circle><circle cx="100" cy="70" r="1" fill="#FFF"></circle><path fill="#FFEB3B" stroke="#333" stroke-width="1.5" d="M90 100 100 120 110 100z"></path><path fill="#795548" stroke="#333" stroke-width="1.5" d="M100 130 95 150 105 150 100 130z"></path><path fill="#5D4037" stroke="#333" stroke-width="1.5" d="M95 150 85 155 105 155 115 155 105 150z"></path></svg>